<?xml version="1.0" encoding="iso-8859-1"?>
<!-- Generator: Adobe Illustrator 21.0.0, SVG Export Plug-In . SVG Version: 6.00 Build 0)  -->
<svg xmlns="http://www.w3.org/2000/svg" xmlns:xlink="http://www.w3.org/1999/xlink" version="1.1" id="Capa_1" x="0px" y="0px" viewBox="0 0 512 512" style="enable-background:new 0 0 512 512;" xml:space="preserve" width="512" height="512">
<g>
	<rect x="106" y="392" width="60" height="30"/>
	<rect x="106" y="90" width="210" height="92"/>
	<path d="M31,15v452c0,24.814,20.186,45,45,45h323.344c-5.167-8.86-8.344-19.023-8.344-30V15c0-8.291-6.709-15-15-15H46   C37.709,0,31,6.709,31,15z M331,452h-90c-8.291,0-15-6.709-15-15s6.709-15,15-15h90c8.291,0,15,6.709,15,15S339.291,452,331,452z    M331,392h-90c-8.291,0-15-6.709-15-15s6.709-15,15-15h90c8.291,0,15,6.709,15,15S339.291,392,331,392z M76,75   c0-8.291,6.709-15,15-15h240c8.291,0,15,6.709,15,15v122c0,8.291-6.709,15-15,15H91c-8.291,0-15-6.709-15-15V75z M91,242h240   c8.291,0,15,6.709,15,15s-6.709,15-15,15H91c-8.291,0-15-6.709-15-15S82.709,242,91,242z M91,302h240c8.291,0,15,6.709,15,15   s-6.709,15-15,15H91c-8.291,0-15-6.709-15-15S82.709,302,91,302z M76,377c0-8.291,6.709-15,15-15h90c8.291,0,15,6.709,15,15v60   c0,8.291-6.709,15-15,15H91c-8.291,0-15-6.709-15-15V377z"/>
	<path d="M481,135c0-8.286-6.716-15-15-15h-45v362c0,16.567,13.431,30,30,30s30-13.433,30-30V135z"/>
</g>















</svg>
