<?xml version="1.0" encoding="iso-8859-1"?>
<!-- Generator: Adobe Illustrator 19.0.0, SVG Export Plug-In . SVG Version: 6.00 Build 0)  -->
<svg version="1.1" id="Layer_1" xmlns="http://www.w3.org/2000/svg" xmlns:xlink="http://www.w3.org/1999/xlink" x="0px" y="0px"
	 viewBox="0 0 511.997 511.997" style="enable-background:new 0 0 511.997 511.997;" xml:space="preserve">
<g>
	<g>
		<path d="M486.399,59.731H289.052c-1.361-5.27-3.958-10.045-7.454-14.01V8.533c0-4.719-3.814-8.533-8.533-8.533h-34.133
			c-4.719,0-8.533,3.814-8.533,8.533V45.72c-3.496,3.965-6.093,8.74-7.454,14.01H25.599c-4.719,0-8.533,3.823-8.533,8.533
			s3.814,8.533,8.533,8.533h64.325L34.802,218.541c-0.002,0.004-0.003,0.009-0.005,0.013l-0.084,0.217
			c-0.018,0.047-0.029,0.094-0.047,0.141c-0.074,0.201-0.143,0.404-0.203,0.611c-0.023,0.081-0.042,0.162-0.062,0.243
			c-0.047,0.187-0.091,0.375-0.126,0.567c-0.02,0.108-0.034,0.215-0.049,0.323c-0.023,0.165-0.046,0.33-0.06,0.498
			c-0.011,0.132-0.015,0.263-0.02,0.394c-0.004,0.106-0.016,0.209-0.016,0.316c0,0.055,0.006,0.109,0.006,0.165
			c0.001,0.068,0.005,0.136,0.008,0.204c0.308,23.75,30.17,42.298,68.252,42.298c38.021,0,67.831-18.48,68.247-42.167
			c0.008-0.14,0.015-0.28,0.016-0.422c0-0.026,0.003-0.052,0.003-0.078c0-0.05-0.007-0.099-0.008-0.149
			c-0.004-0.211-0.012-0.422-0.032-0.634c-0.008-0.092-0.021-0.183-0.033-0.274c-0.023-0.181-0.048-0.361-0.083-0.542
			c-0.023-0.123-0.052-0.243-0.081-0.364c-0.035-0.146-0.07-0.292-0.112-0.437c-0.043-0.146-0.093-0.288-0.143-0.43
			c-0.031-0.087-0.053-0.175-0.087-0.262L114.873,76.797h108.072c1.361,5.27,3.958,10.045,7.454,14.01v369.99h-34.134
			c-23.526,0-42.667,19.14-42.667,42.667c0,4.71,3.814,8.533,8.533,8.533h187.733c4.719,0,8.533-3.823,8.533-8.533
			c0-23.526-19.14-42.667-42.667-42.667h-34.133V90.808c3.496-3.965,6.093-8.74,7.454-14.01h108.072L342.002,218.54
			c-0.002,0.005-0.004,0.011-0.006,0.016l-0.083,0.214c-0.018,0.046-0.029,0.093-0.046,0.139c-0.075,0.202-0.144,0.405-0.203,0.614
			c-0.023,0.08-0.041,0.16-0.062,0.24c-0.048,0.188-0.092,0.377-0.127,0.57c-0.02,0.107-0.034,0.214-0.049,0.321
			c-0.024,0.166-0.046,0.331-0.06,0.5c-0.011,0.131-0.015,0.262-0.02,0.393c-0.004,0.106-0.016,0.21-0.016,0.316
			c0,0.056,0.006,0.11,0.006,0.165c0.001,0.067,0.005,0.134,0.008,0.202c0.307,23.751,30.169,42.299,68.252,42.299
			c38.021,0,67.831-18.48,68.247-42.167c0.008-0.14,0.015-0.281,0.016-0.422c0-0.026,0.003-0.051,0.003-0.077
			c0-0.05-0.007-0.098-0.008-0.148c-0.004-0.212-0.012-0.423-0.032-0.636c-0.008-0.092-0.021-0.182-0.033-0.273
			c-0.023-0.181-0.048-0.362-0.083-0.543c-0.023-0.123-0.052-0.243-0.081-0.364c-0.035-0.146-0.07-0.292-0.112-0.437
			c-0.043-0.146-0.093-0.288-0.143-0.43c-0.031-0.087-0.053-0.175-0.087-0.262L422.073,76.797h64.326
			c4.719,0,8.533-3.823,8.533-8.533S491.118,59.731,486.399,59.731z M102.399,91.803l47.259,121.528H55.14L102.399,91.803z
			 M102.396,247.464c-23.117,0-40.866-7.919-47.898-17.067h95.804C143.262,239.545,125.513,247.464,102.396,247.464z
			 M409.599,91.803l47.259,121.528H362.34L409.599,91.803z M409.596,247.464c-23.117,0-40.866-7.919-47.898-17.067h95.804
			C450.462,239.545,432.713,247.464,409.596,247.464z M245.268,81.519c-0.407-0.452-0.86-0.859-1.354-1.216
			c-3.077-3.088-4.982-7.345-4.982-12.039c0-4.694,1.905-8.951,4.982-12.039c0.494-0.356,0.946-0.763,1.352-1.214
			c2.934-2.381,6.668-3.814,10.733-3.814c4.065,0,7.798,1.433,10.733,3.814c0.406,0.451,0.859,0.858,1.352,1.214
			c3.077,3.088,4.982,7.344,4.982,12.039c0,4.695-1.905,8.951-4.982,12.039c-0.494,0.356-0.947,0.764-1.354,1.216
			c-2.934,2.38-6.666,3.812-10.73,3.812C251.935,85.331,248.202,83.899,245.268,81.519z M264.532,17.067V35.21
			c-2.728-0.705-5.588-1.08-8.533-1.08c-2.946,0-5.805,0.375-8.533,1.08V17.067H264.532z M339.872,494.931H172.124
			c3.524-9.933,13.013-17.067,24.141-17.067h42.668h34.133h42.666C326.859,477.864,336.348,484.998,339.872,494.931z
			 M247.465,460.797v-359.48c2.728,0.705,5.588,1.08,8.533,1.08c2.946,0,5.805-0.375,8.533-1.08v359.48H247.465z"/>
	</g>
</g>
<g>
</g>
<g>
</g>
<g>
</g>
<g>
</g>
<g>
</g>
<g>
</g>
<g>
</g>
<g>
</g>
<g>
</g>
<g>
</g>
<g>
</g>
<g>
</g>
<g>
</g>
<g>
</g>
<g>
</g>
</svg>
